<?xml version="1.0" encoding="UTF-8"?>
<svg id="Layer_1" xmlns="http://www.w3.org/2000/svg" version="1.1" viewBox="0 0 2492.19 608.7">
  <!-- Generator: Adobe Illustrator 30.4.0, SVG Export Plug-In . SVG Version: 2.1.3 Build 87)  -->
  <defs>
    <style>
      .st0 {
        fill: none;
      }

      .st1, .st2 {
        fill: #fff;
      }

      .st2 {
        font-family: IosevkaCharonMono-Medium, 'Iosevka Charon Mono';
        font-size: 122.06px;
        font-weight: 500;
        letter-spacing: .46em;
      }
    </style>
  </defs>
  <g>
    <path class="st0" d="M1609.56,207.79l41.91-1.08c10.72-1.46,19.91-5.03,28.19-12.01,18.9-15.91,15.83-44.38-.94-59.94-6.6-6.13-13.65-10.31-22.06-13.15-10-2.13-19.61-3.65-30.13-3.66l-86.1-.12.07,90.33,69.06-.36h0Z"/>
    <path class="st0" d="M1662.95,247.48c-8.96-3.4-18.65-4.59-28.37-4.6l-69.92-.02h-24.17l-.15,13.96.09,83.44,92.11-.4c17.96-.08,34.51-3.37,50.16-12.12,7.44-5.8,14.48-13.38,16.88-22.86,6.46-25.5-12.1-48.1-36.63-57.4h0Z"/>
    <path class="st1" d="M1710.61,237.77c-6.6-5.41-14.56-8.31-22.65-12.16,21.12-9.91,37.13-28.2,41.06-51.03,5.32-30.99-11.79-62.25-38.97-77.27-18.95-10.07-38.84-13.86-60.55-13.87l-127.19-.09-.08,292.62,30.46.04,88.84.04c36.85.02,78.84-4.01,102.07-34.34,24.94-32.57,19.11-77.63-12.98-103.94h-.01ZM1626.53,117.94c10.52.01,20.12,1.53,30.13,3.66,8.41,2.85,15.46,7.03,22.06,13.15,16.77,15.57,19.84,44.03.94,59.94-8.29,6.98-17.48,10.55-28.19,12.01l-41.91,1.08-69.06.36-.07-90.33,86.1.12h0ZM1699.58,304.88c-2.4,9.48-9.44,17.07-16.88,22.86-15.65,8.75-32.19,12.04-50.16,12.12l-92.11.4-.09-83.44.15-13.95h94.09c9.72,0,19.41,1.21,28.37,4.61,24.53,9.3,43.09,31.9,36.63,57.4h0Z"/>
  </g>
  <path class="st1" d="M624.75,248.59l-.08-33.82,125,.43.13,110.45c0,4.06-1.86,7.33-4.89,9.4-23.12,24.78-55.98,41.41-89.97,44.21-21.8,1.8-43.6,1.04-65.07-3.84l-23.51-7.55c-23.27-7.47-49.76-33.51-62.53-55.3-18.26-31.19-23.69-68.89-18.99-104.74,1.84-14.07,5.86-27.23,10.4-40.38,5.51-15.97,14.68-28.96,25.36-41.66,8.23-9.79,17.41-17.12,28.15-23.9,19.29-12.16,39.82-19.23,62.39-21.85,36.79-4.26,72.38.32,103.8,20.41,10.3,5.94,19.96,12.34,28.56,21.38l-21.17,25.67c-14.35-12.83-30.66-21.73-48.47-28.04-11.3-4-22.24-5.76-34.25-6.07-40.47-1.05-76.94,14.05-99.14,48.28-5.3,8.17-9.49,16.09-12.61,25.42-10.27,30.77-10.38,59.19.48,89.82,4.55,12.84,11.42,23.47,20.9,33.25,15.6,16.11,34.63,26.65,56.8,31.38,38.19,8.15,75.68,1.58,106.55-22.95,1.11-2.24,1.88-5.04,1.89-7.83l.23-61.77-89.95-.39h0Z"/>
  <polygon class="st1" points="1093.4 375.79 1056.08 375.83 1055.76 277.81 1055.81 244.7 997.57 244.52 891.33 244.59 891.05 260.86 890.61 375.92 852.77 375.62 852.98 216.77 852.63 83.42 891.05 83.43 890.79 125.82 890.75 208.76 1055.58 208.71 1055.95 83.27 1093.44 83.74 1093.23 108.97 1093.16 363.62 1093.4 375.79"/>
  <path class="st1" d="M2387.2,366.57l-27.33-38.15-40.18-56.75-11.21-18.04-33.81,46.19-51.16,72.67c-2.47,3.52-5.86,3.94-9.82,3.87l-36.32-.61,50.32-70.83,33.27-46.76,22.33-31.8-18.43-25.9-56.94-80.92-24.68-36.24,16.44.6,27.73-.4,36.69,53.79,44.39,64.27,12.89-21.17,66.74-96.52,43.13-.21-10.99,16.9-57.87,81.9-30.77,43.84,14.95,21.6,61.92,86.94,26.82,38.2c.12.46.68,2.33.26,2.38l-2.85.37-36.68.55c-3.23-2.48-6.1-5.93-8.83-9.73v-.04Z"/>
  <polygon class="st1" points="1279.9 375.9 1279.91 145.96 1279.55 117.72 1229.63 117.45 1180.11 117.39 1179.65 83.4 1416.31 83.38 1416.23 117.66 1317.16 117.73 1317 358.49 1316.54 375.99 1279.9 375.9"/>
  <path class="st1" d="M250.56,381.64l-189.9.06.16-80.05-.04-176.77.93-47.23c12.38-.82,23.51-.7,35.89.3l-.1,266.83,153.46.17-.4,36.69h0Z"/>
  <rect class="st1" x="212.72" y="210.24" width="304.72" height="38.47" transform="translate(135.1 594.24) rotate(-89.92)"/>
  <path class="st1" d="M2115.3,183.5c-4.2-7.25-9.17-12.8-14.74-18.71l-19.45-20.62-26.02-26.9-20.08-21.08-61.58-65.18c-3.45-3.66-6.38-7.04-10.62-9.85l-22.14,24.68-16.1,16.97-64.49,67.4-47.11,51.05-.79,67.56c-.08,6.71,2.51,12.64,6.95,17.41l36.17,38.84,52.72,55.18,33.61,35.42,22.19,23.54,10.32-11.08,51.16-54.11,23.83-24.77,31.47-33.51,34.82-37.49-.13-74.75h0ZM1868.46,162.53l42.64-45.16,13.54-14.66,26.37-26.38-.45,35.17-21.93,24.27-19.56,20.43-23.93,24.55-17.6,18.97-16.65-18.37,17.55-18.83h.02ZM1950.81,334.7l-.31,29.39-9.59-10.22-20.3-21.1-23.51-24.53-27.57-29.43-19.18-19.16,7.19-8.03,10.41-10.79,34.29,36.26,6.3,6.81,40.53,43.37c2.13,2.28,1.78,4.7,1.75,7.43h-.01ZM1963.21,301.66l-40.18-43.32-18.93-20.07-17.44-18.02,12.92-13.5,11.05-12.02,18.46-19.52,19.04-19.94,15.76-16.68,24.74,27.19,28.47,29.48,23.7,25.17-18.63,18.9-13.39,14.61-31.61,33.27-13.98,14.45h.02ZM2046.78,290.94l-46.69,49.17-23.08,23.39-.35-33.86,25.88-28.88,15.08-16.07,24.98-25.9,17.48-17.99,16.83,19.02-30.13,31.11h0ZM2059.55,199.75l-22.43-24.49-22.55-23.54-34.06-36.83-3.5-6.6.13-31.39,24.03,24.3,19.43,20.59,35.95,37.99,20.39,20.91-17.39,19.06Z"/>
  <text class="st2" transform="translate(48.66 563.73)"><tspan x="0" y="0">AI COCKTAIL GENERATOR</tspan></text>
</svg>